#define power_ac_width 16
#define power_ac_height 16
static unsigned char power_ac_bits[] = {
   0x00, 0x00, 0x00, 0x00, 0x00, 0x00, 0x00, 0x07, 0x80, 0x07, 0xc0, 0x3f,
   0xe0, 0x07, 0xfc, 0x07, 0xfc, 0x07, 0xe0, 0x07, 0xc0, 0x3f, 0x80, 0x07,
   0x00, 0x07, 0x00, 0x00, 0x00, 0x00, 0x00, 0x00 };
