#define l_width 3
#define l_height 16
static unsigned char l_bits[] = {
   0x00, 0x03, 0x01, 0x01, 0x01, 0x01, 0x01, 0x01, 0x01, 0x01, 0x01, 0x01,
   0x01, 0x03, 0x00, 0x00};
