#define layout-dwindle_width 16
#define layout-dwindle_height 16
static unsigned char layout-dwindle_bits[] = {
   0x00, 0x00, 0xfe, 0x7f, 0x22, 0x40, 0x22, 0x40, 0x22, 0x40, 0xe2, 0x7f,
   0x22, 0x41, 0x22, 0x41, 0x22, 0x41, 0x22, 0x7f, 0x22, 0x49, 0x22, 0x49,
   0x22, 0x49, 0x22, 0x49, 0xfe, 0x7f, 0x00, 0x00};
