#define layout-grid_width 16
#define layout-grid_height 16
static unsigned char layout-grid_bits[] = {
   0x00, 0x00, 0xfe, 0x7f, 0x82, 0x41, 0x82, 0x41, 0x82, 0x41, 0x82, 0x41,
   0x82, 0x41, 0xfe, 0x7f, 0xfe, 0x7f, 0x82, 0x41, 0x82, 0x41, 0x82, 0x41,
   0x82, 0x41, 0x82, 0x41, 0xfe, 0x7f, 0x00, 0x00};
