#define layout-tab_width 16
#define layout-tab_height 16
static unsigned char layout-tab_bits[] = {
   0x00, 0x00, 0xdc, 0x1d, 0x22, 0x22, 0x42, 0x44, 0xfe, 0x7f, 0x02, 0x40,
   0x02, 0x40, 0x02, 0x40, 0x02, 0x40, 0x02, 0x40, 0x02, 0x40, 0x02, 0x40,
   0x02, 0x40, 0x02, 0x40, 0xfe, 0x7f, 0x00, 0x00};
