#define layout-mtiled_width 16
#define layout-mtiled_height 16
static unsigned char layout-mtiled_bits[] = {
   0x00, 0x00, 0xfe, 0x7f, 0x02, 0x40, 0x02, 0x40, 0x02, 0x40, 0x02, 0x40,
   0x02, 0x40, 0x02, 0x40, 0xfe, 0x7f, 0x02, 0x41, 0x02, 0x41, 0x02, 0x41,
   0x02, 0x41, 0x02, 0x41, 0xfe, 0x7f, 0x00, 0x00};
