#define layout-tiled_width 16
#define layout-tiled_height 16
static unsigned char layout-tiled_bits[] = {
   0x00, 0x00, 0xfe, 0x7f, 0x02, 0x41, 0x02, 0x41, 0x02, 0x41, 0x02, 0x41,
   0x02, 0x41, 0x02, 0x41, 0x02, 0x7f, 0x02, 0x41, 0x02, 0x41, 0x02, 0x41,
   0x02, 0x41, 0x02, 0x41, 0xfe, 0x7f, 0x00, 0x00};
