#define r_width 3
#define r_height 16
static unsigned char r_bits[] = {
   0x00, 0x06, 0x04, 0x04, 0x04, 0x04, 0x04, 0x04, 0x04, 0x04, 0x04, 0x04,
   0x04, 0x06, 0x00, 0x00};
